<?xml version="1.0" encoding="UTF-8"?>
<svg width="220mm" height="220mm" version="1.1" viewBox="0 0 220 220" xml:space="preserve" xmlns="http://www.w3.org/2000/svg"><g transform="translate(-34.585 -34.276)"><g transform="translate(37.901 1.6715)"><g transform="translate(-1.6066 -.44879)"><g transform="translate(-164.76 -324.45)"><path d="m261.34 574.35-1.1906-0.68063-2.6458-1.4858-38.629-22.344-12.435-7.1699-4.6302-2.6685v-34.444-34.444l0.4383-0.1682 0.43831-0.16819-0.17481-32.338-0.1748-32.338 82.798-47.729 59.153 34.166 0.8599 0.41456 0.85989 0.41457v26.304l-0.4018 0.15419-0.4018 0.15418 0.1584 53.518 0.1584 53.518-0.43924 0.57497-1.2128 0.70407-1.2128 0.70406-4.5859-2.7116v-3.1646l-0.66145 0.25935-71.967 41.556-0.0722 4.4696-0.0722 4.4696-1.84 0.66537v0.49491l-0.92604-6e-3zm7.2472-19.526 2.8816-1.686-1.2652-0.79041-3.7042-2.109-1.1906-0.61983v6.8978l0.39687-6e-3zm14.643-8.4532 4.2952-2.4724-20.497-11.826-0.8599-0.50421-0.85989-0.50421 8e-3 5.1194 8e-3 5.1194 13.08 7.5268 0.52917 0.014zm15.961-9.2188 4.2236-2.4312-0.20143-0.18532-0.20142-0.18533-35.131-20.265-2.4398 1.2888-0.0705 3.7042-0.0705 3.7042 28.981 16.766 0.68697 0.035zm17.23-9.9412 3.0906-1.7751-0.0958-0.0794-35.402-20.434h-0.46735l-8.473 4.8948 0.58848 0.39687 0.58849 0.39688 34.434 19.9 2.6458-1.525zm13.97-8.2332-5e-3 -0.16422-35.47-20.45-3.6791 2.13 8e-3 0.32844 35.465 20.454 3.6856-2.1338z" fill="#a6b8a6"/><path d="m261.34 574.35-1.1906-0.68063-2.6458-1.4858-38.629-22.344-12.435-7.1699-4.6302-2.6685v-34.444-34.444l0.4383-0.1682 0.43831-0.16819-0.17481-32.338-0.1748-32.338 82.798-47.729 59.153 34.166 0.8599 0.41456 0.85989 0.41457v26.304l-0.4018 0.15419-0.4018 0.15418 0.1584 53.518 0.1584 53.518-0.43924 0.57497-1.2128 0.70407-1.2128 0.70406-4.5859-2.7116v-3.1646l-0.66145 0.25935-71.967 41.556-0.0722 4.4696-0.0722 4.4696-1.84 0.66537v0.49491l-0.92604-6e-3zm7.2472-19.526 2.8816-1.686-1.2652-0.79041-3.7042-2.109-1.1906-0.61983v6.8978l0.39687-6e-3zm14.643-8.4532 4.2952-2.4724-20.497-11.826-0.8599-0.50421-0.85989-0.50421 8e-3 5.1194 8e-3 5.1194 13.08 7.5268 0.52917 0.014zm15.961-9.2188 4.2236-2.4312-0.20143-0.18532-0.20142-0.18533-35.131-20.265-2.4398 1.2888-0.0705 3.7042-0.0705 3.7042 28.981 16.766 0.68697 0.035zm17.23-9.9412 3.0906-1.7751-0.0958-0.0794-35.402-20.434h-0.46735l-8.473 4.8948 0.58848 0.39687 0.58849 0.39688 34.434 19.9 2.6458-1.525zm13.97-8.2332-5e-3 -0.16422-35.47-20.45-3.6791 2.13 8e-3 0.32844 35.465 20.454 3.6856-2.1338zm-127.06-77.072-0.0729-9.6106-5e-5 19.05-4e-5 19.05 0.1458-18.879zm141.29-12.171-0.073-9.346-5e-5 18.521-5e-5 18.521 0.0731-9.1749 0.0731-9.1749zm-0.72751 9.1945v-18.104l-4.2333 2.3984v31.382l4.101 2.4031 0.1322 0.0256zm-95.384 5.3382 5.1326-2.9766-0.58092-0.32098-0.58091-0.32098-27.75-16.051-10.174 5.8446 0.40076 0.41855 28.262 16.351 0.1572 0.0312zm20.084-11.576 11.256-6.4823 0.016-12.082-1.7198 1.0492-30.956 17.84-0.38406 0.34976 10.174 5.9071 0.17956-0.05 0.17956-0.0499zm-6.4558-12.255 17.595-10.171 0.0697-8.7502 0.0697-8.7502-12.111 6.9862-39.447 22.754 0.18946 0.19792 0.18946 0.19793 14.527 8.4052 1.3229-0.69889z" fill="#6e8b6e"/><path d="m261.34 574.35-1.1906-0.68063-2.6458-1.4858-38.629-22.344-12.435-7.1699-4.6302-2.6685v-34.444-34.444l0.4383-0.1682 0.43831-0.16819-0.17481-32.338-0.1748-32.338 82.798-47.729 59.153 34.166 0.8599 0.41456 0.85989 0.41457v26.304l-0.4018 0.15419-0.4018 0.15418 0.1584 53.518 0.1584 53.518-0.43924 0.57497-1.2128 0.70407-1.2128 0.70406-4.5859-2.7116v-3.1646l-0.66145 0.25935-71.967 41.556-0.0722 4.4696-0.0722 4.4696-1.84 0.66537v0.49491l-0.92604-6e-3zm7.2472-19.526 2.8816-1.686-1.2652-0.79041-3.7042-2.109-1.1906-0.61983v6.8978l0.39687-6e-3zm14.643-8.4532 4.2952-2.4724-20.497-11.826-0.8599-0.50421-0.85989-0.50421 8e-3 5.1194 8e-3 5.1194 13.08 7.5268 0.52917 0.014zm15.961-9.2188 4.2236-2.4312-0.20143-0.18532-0.20142-0.18533-35.131-20.265-2.4398 1.2888-0.0705 3.7042-0.0705 3.7042 28.981 16.766 0.68697 0.035zm17.23-9.9412 3.0906-1.7751-0.0958-0.0794-35.402-20.434h-0.46735l-8.473 4.8948 0.58848 0.39687 0.58849 0.39688 34.434 19.9 2.6458-1.525zm13.97-8.2332-5e-3 -0.16422-35.47-20.45-3.6791 2.13 8e-3 0.32844 35.465 20.454 3.6856-2.1338zm-127.06-77.072-0.0729-9.6106-5e-5 19.05-4e-5 19.05 0.1458-18.879zm1.1246 8.879v-18.918l-0.26458 0.16352-0.26459 0.16352v37.835l0.26459-0.16352 0.26458-0.16353zm17.228 8.965 16.374-9.4548-8e-3 -0.13639-8e-3 -0.13638-28.667-16.497-0.96693 0.51748-3.0947-1.8799h-0.32765v37.042h0.32462zm122.93-30.015-0.073-9.346-5e-5 18.521-5e-5 18.521 0.0731-9.1749 0.0731-9.1749zm-0.72751 9.1945v-18.104l-4.2333 2.3984v31.382l4.101 2.4031 0.1322 0.0256zm-4.8288-7.7776-0.0744-7.5879 7e-5 15.346 7e-5 15.346 0.1486-15.516zm-0.72741 7.2488v-14.4l-6.2177 3.613-0.135 21.615 6.2204 3.5718 0.0661 3e-5 0.0661 4e-5zm-97.62 10.365 1.0426-0.59531 4e-3 -0.2711-28.669-16.554-2.2874 1.2135 7e-3 0.13274 6e-3 0.13275 28.694 16.531 0.1598 6e-3zm1.6905-1.4876-0.24694-0.22201-28.226-16.257-0.17471 0.18888-0.1747 0.18888 0.52916 0.20794 28.295 16.36 0.12231-0.12231 0.1223-0.12231zm6.1011-3.0103 5.1326-2.9766-0.58092-0.32098-0.58091-0.32098-27.75-16.051-10.174 5.8446 0.40076 0.41855 28.262 16.351 0.1572 0.0312zm20.084-11.576 11.256-6.4823 0.016-12.082-1.7198 1.0492-30.956 17.84-0.38406 0.34976 10.174 5.9071 0.17956-0.05 0.17956-0.0499zm-6.4558-12.255 17.595-10.171 0.0697-8.7502 0.0697-8.7502-12.111 6.9862-39.447 22.754 0.18946 0.19792 0.18946 0.19793 14.527 8.4052 1.3229-0.69889zm-42.92 6.8315 5.0628-2.9104-0.33622-0.0759-0.33623-0.076-9.8892 5.7007v0.44845l0.43596-0.1764zm4e-3 -1.0622 4.0475-2.3256-0.42211-0.36388-1.8521-1.093-9.525 5.5327-0.36588 0.21539-0.36588 0.21538 2.3062 1.3752 2.1297-1.2306zm34.458-18.852 26.012-15.019 0.10416-0.31251 0.10417-0.31251-45.411 26.225-7.0115 4.0215v0.4163h0.1906zm65.132 1.0652 3.1091-1.783-0.64845-0.58044-13.006-7.4768-0.83673-0.32108-6.1728 3.5444 0.21802 0.21023 0.21803 0.21022 13.758 7.9541 0.12555 0.0128 0.12554 0.0127zm-17.994-10.322 3.1186-1.7859-4e-3 -0.26458-14.028-8.05 0.0734 3.7454 0.0734 3.7454 7.4083 4.3403 0.11961 0.0277 0.1196 0.0277z" fill="#6e7476"/><path d="m261.34 574.35-1.1906-0.68063-2.6458-1.4858-38.629-22.344-12.435-7.1699-4.6302-2.6685v-34.444-34.444l0.4383-0.1682 0.43831-0.16819-0.17481-32.338-0.1748-32.338 82.798-47.729 59.153 34.166 0.8599 0.41456 0.85989 0.41457v26.304l-0.4018 0.15419-0.4018 0.15418 0.1584 53.518 0.1584 53.518-0.43924 0.57497-1.2128 0.70407-1.2128 0.70406-4.5859-2.7116v-3.1646l-0.66145 0.25935-71.967 41.556-0.0722 4.4696-0.0722 4.4696-1.84 0.66537v0.49491l-0.92604-6e-3zm2.9943-0.70206 0.44957-0.33073-0.0683-28.779-0.0683-28.779-1.1906 0.83397v57.385h0.42803zm39.736-31.58 38.1-22.002 0.1536-4.6118-0.24388 0.0918-0.24388 0.0917-76.524 44.185-4e-3 4.6614 0.66146-0.4154zm-0.60278-4.7737 37.909-21.868 0.72724-0.6669-1.6248-0.84019-8.0983 4.6978-39.158 22.62-1.0583 0.59977-1.0583 0.59976-11.642 6.7342-14.023 8.0668-0.0821 0.9619-0.0821 0.96191h0.2816zm-34.88 17.529 2.8816-1.686-1.2652-0.79041-3.7042-2.109-1.1906-0.61983v6.8978l0.39687-6e-3zm5.3762-3.1007 1.973-1.0891-0.44118-0.40582-10.186-5.8642v4.6343l6.4823 3.7653 0.1994 0.0486zm3.4699-2.0418 0.6152-0.47328-12.321-7.1115-0.4536-0.1882 0.0838 1.0072 0.0838 1.0072 10.848 6.2435 0.52916-0.012zm5.7967-3.3107 4.2952-2.4724-20.497-11.826-0.8599-0.50421-0.85989-0.50421 8e-3 5.1194 8e-3 5.1194 13.08 7.5268 0.52917 0.014zm6.9907-4.0473 1.7609-1.0251-26.329-15.209h-0.34353v4.4208l22.622 13.046 0.26459-0.1037 0.26458-0.10369zm3.1734-1.8347 0.80696-0.41729-16.589-9.5683-12.171-7.0479-0.0857 0.97985-0.0857 0.97984 0.21797 0.0791 0.21796 0.0791 26.458 15.321 0.42315 0.012zm5.7971-3.3368 4.2236-2.4312-0.20143-0.18532-0.20142-0.18533-35.131-20.265-2.4398 1.2888-0.0705 3.7042-0.0705 3.7042 28.981 16.766 0.68697 0.035zm6.8546-3.95 1.8897-1.0895-0.4774-0.32478-0.4774-0.32479-34.538-19.926h-0.31811l-3.8653 2.1992 35.546 20.54 0.35039 0.014zm3.4227-2.0194 0.56207-0.46302-35.582-20.524-1.7235 0.92818 0.65319 0.39642 34.66 20.09 0.86741 0.0356zm6.9528-3.9719 3.0906-1.7751-0.0958-0.0794-35.402-20.434h-0.46735l-8.473 4.8948 0.58848 0.39687 0.58849 0.39688 34.434 19.9 2.6458-1.525zm25.881-2.8278v-3.8231l-3.7042 2.1356v3.3683l1.7859 1.0605 1.7859 1.0605 0.1322 0.0212zm1.6128 3.3691 0.76843-0.45392v-57.609l-0.39688 0.1934-1.4552 0.72941v57.594h0.31523zm-21.842-3.8206 1.9326-1.0996-34.753-20.081-1.0693-0.50362-3.8631 2.2366 0.69907 0.42209 34.66 20.09 0.46032 0.0356zm3.8248-2.3476v-0.15806l-35.497-20.497-1.6202 1.0258 4.1762 2.4188 31.485 18.204 1.4552-0.83537zm4.4933-2.6063-5e-3 -0.16422-35.47-20.45-3.6791 2.13 8e-3 0.32844 35.465 20.454 3.6856-2.1338zm-26.156-26.556 40.445-23.349 1e-3 -2.3283 1e-3 -2.3282-0.35373 0.21159-0.35373 0.21158-80.52 46.513v4.4197h0.33349zm32.942 22.799 0.89112-0.55075-6e-3 -2.2058-22.88-13.198-10.933-6.2945-3.971 2.3016 35.277 20.442 0.73129 0.056zm4.1984-1.3364 0.92604 0.54638v-43.413l-3.0427 1.7103-0.66146 0.51003v41.192l1.8521-1.0928zm-3.3575-3.0306-0.0821-0.94895-31.461-18.168-1.4793 0.76497 6e-3 0.19164 6e-3 0.19165 32.665 18.886 0.42882 0.0318zm-58.91-20.852 0.51139-0.35819-0.78417-0.30091-2.0597 0.80906-2.2071-0.59431v-0.51885l1.4552 0.40317 1.7152-0.0358 0.36618-0.36618-0.61096-0.61096-2.7843 0.0634-0.1854 0.55636h-0.98301l-0.14499 0.2346-0.145 0.23461 0.65564 0.54142 1.8521 0.55819 2.8375-0.25751zm0.22295-1.0854v-0.1323h-0.26458v0.26459h0.26458zm10.054-8.7312v-0.1323h-0.26458v0.26459h0.26458zm6.35-0.26459v-0.13229h-0.26458v0.26458h0.26458zm-0.52917-0.26458v-0.13229h-0.26458v0.26458h0.26458zm16.933-8.7312v-0.13229h-0.26459v0.26458h0.26459zm-0.52917-0.26458v-0.1323h-0.26458v0.26459h0.26458zm-108.28-28.754-0.0729-9.6106-5e-5 19.05-4e-5 19.05 0.1458-18.879zm1.1246 8.879v-18.918l-0.26458 0.16352-0.26459 0.16352v37.835l0.26459-0.16352 0.26458-0.16353zm17.228 8.965 16.374-9.4548-8e-3 -0.13639-8e-3 -0.13638-28.667-16.497-0.96693 0.51748-3.0947-1.8799h-0.32765v37.042h0.32462zm40.595-18.525-0.12695-0.33081h-0.54577v22.119l0.33073 0.33082 0.33073 0.33083 0.1382-22.119zm69.442 18.571v-0.41249l-0.26458 0.16353-0.26458 0.16352v0.49793h0.52916zm0-1.4396v-0.26458h-0.52916v0.52916h0.52916zm12.898-28.622-0.073-9.346-5e-5 18.521-5e-5 18.521 0.0731-9.1749 0.0731-9.1749zm-0.72751 9.1945v-18.104l-4.2333 2.3984v31.382l4.101 2.4031 0.1322 0.0256zm-11.642 17.443v-0.1323h-0.26458v0.26459h0.26458zm6.8128-25.22-0.0744-7.5879 7e-5 15.346 7e-5 15.346 0.1486-15.516zm-0.72741 22.575v-0.13229h-0.26459v0.26458h0.26459zm-3.1434-2.1332-2.9973-1.7363-0.25742 0.25742 5.472 3.2099 0.77997 6e-3zm3.1434-13.193v-14.4l-6.2177 3.613-0.135 21.615 6.2204 3.5718 0.0661 3e-5 0.0661 4e-5zm-99.364 11.25-0.25136-0.23982-28.528-16.457-0.3075 0.3075 0.78934 0.45928 27.781 16.121 0.76729 0.0486zm1.7447-0.88467 1.0426-0.59531 4e-3 -0.2711-28.669-16.554-2.2874 1.2135 7e-3 0.13274 6e-3 0.13275 28.694 16.531 0.1598 6e-3zm1.6905-1.4876-0.24694-0.22201-28.226-16.257-0.17471 0.18888-0.1747 0.18888 0.52916 0.20794 28.295 16.36 0.12231-0.12231 0.1223-0.12231zm6.1011-3.0103 5.1326-2.9766-0.58092-0.32098-0.58091-0.32098-27.75-16.051-10.174 5.8446 0.40076 0.41855 28.262 16.351 0.1572 0.0312zm12.57 0.0928v-0.5025l-55.581-32.091-0.8223-0.31554 0.1788 1.1503 55.827 32.245 0.39687 0.016zm-0.0448-2.2597-0.0875-0.0709-35.19-20.282-19.844-11.488-0.97136 0.51412 0.16794 0.16794 0.16794 0.16795 55.669 32.148 0.0875-0.54329 0.0875-0.5433zm2.2201-2.1537-0.43115-0.31526-1.244 0.56681 1.1892 0.63646 0.45855-0.28638 0.45856-0.28637zm5.3387-7.2549 11.256-6.4823 0.016-12.082-1.7198 1.0492-30.956 17.84-0.38406 0.34976 10.174 5.9071 0.17956-0.05 0.17956-0.0499zm-60.431 0.30663v-0.22253l-2.6816-1.4595-0.25577 0.25577 2.5404 1.612 0.39688 0.0368zm76.861-22.318 38.1-21.979 0.7123-0.66189-0.0916-0.43811-0.0916-0.43812-78.052 45.057-0.24926 0.23574 0.38921 0.24741 0.38922 0.24742 0.39687-0.14555 0.39688-0.14555zm-73.62 21.095 0.99219-0.50513v-0.43116h-0.29204l-2.0851 1.1906-2e-3 0.22049-2e-3 0.22048 0.39688-0.1902zm72.535-22.201 38.656-22.309 1.0107-0.5473-0.5638-0.30173-0.56379-0.30174-78.569 45.365 0.29325 0.35334 0.29324 0.35334 0.39386-0.15114 0.39387-0.15114zm-73.845 21.893 0.84675-0.42994 0.33981-0.27144 0.3398-0.27145-1.1073-0.66033-1.1073-0.66034-2.3014 1.2572 7.2e-4 0.13781 7.1e-4 0.13782 0.99148 0.56662 0.99147 0.56662 0.1586 0.0574zm52.044-11.032 17.595-10.171 0.0697-8.7502 0.0697-8.7502-12.111 6.9862-39.447 22.754 0.18946 0.19792 0.18946 0.19793 14.527 8.4052 1.3229-0.69889zm-48.816 10.139 0.16352-0.26458h-0.56039v0.52916h0.23335zm-0.92604-0.48045v-0.21586l-2.0564-1.1558-0.7217 0.01 2.3812 1.5435 0.39687 0.034zm6.8217-2.8268 5.0628-2.9104-0.33622-0.0759-0.33623-0.076-9.8892 5.7007v0.44845l0.43596-0.1764zm-15.483-19.921-0.46644-0.34219-0.0691 11.159-0.069 11.159 0.93184 0.68152 0.1392-22.315zm1.7202 14.174 0.0699-8.0842-0.80131-0.30749v16.696l0.66146-0.2203zm13.767 4.6846 4.0475-2.3256-0.42211-0.36388-1.8521-1.093-9.525 5.5327-0.36588 0.21539-0.36588 0.21538 2.3062 1.3752 2.1297-1.2306zm34.458-18.852 26.012-15.019 0.10416-0.31251 0.10417-0.31251-45.411 26.225-7.0115 4.0215v0.4163h0.1906zm12.427-8.1992 37.968-21.929 0.0884-0.60682 0.0884-0.60683-0.25599 0.0956-0.256 0.0956-77.868 44.973 0.44133 0.32271 0.44134 0.32272 0.69254-0.36864 0.69254-0.36863zm-1.3478-0.94028 39.001-22.54-0.0273-0.26458-0.0273-0.26459-0.80581-0.168-78.599 45.379 0.66348 0.42125 0.79375-0.0224zm-59.242 10.244v-1.4145l-0.39687 0.1523-0.39688 0.15229v3.1832l0.79375-0.65875zm40.672-20.252 38.57-22.261 0.175-0.1478-0.0875-0.53807-0.0875-0.53808-77.788 44.938-0.49056 0.177 0.19475 0.31511 0.19475 0.31512h0.74761zm72.622 20.213 3.1091-1.783-0.64845-0.58044-13.006-7.4768-0.83673-0.32108-6.1728 3.5444 0.21802 0.21023 0.21803 0.21022 13.758 7.9541 0.12555 0.0128 0.12554 0.0127zm-72.946-21.77 38.629-22.285 0.1776-0.1568-1.0369-0.55491-77.59 44.796v1.2367l0.59531-0.37538 0.59532-0.37538zm-40.932 20.152 0.34326-0.21774-0.78497-0.65147-1.1636 0.62277 0.73295 0.46418h0.52916zm95.883-8.7038 3.1186-1.7859-4e-3 -0.26458-14.028-8.05 0.0734 3.7454 0.0734 3.7454 7.4083 4.3403 0.11961 0.0277 0.1196 0.0277zm38.711-1.8526v-0.32401l-15.081-8.7214-0.1842 1.1573 0.44875 0.1766 14.023 8.1567 0.39688-0.0606 0.39687-0.0605zm1.453-0.58781 0.39466-0.24952-0.52474-0.48084-53.181-30.676-1.1175-0.59446-0.88312 0.64576 16.489 9.5202 0.74756 0.39687 0.74756 0.39688 30.318 17.558 6.35 3.7194 0.26459 0.014zm-51.66-6.1585-0.0913-1.9182v7.6729l0.1826-3.8365zm53.779 4.9609v-0.0757l-0.79375-0.30459v0.76053l0.79375-0.30459zm-54.558-5.0115-0.0782-1.7042-3.0427 1.8635 4e-3 1.6324 4e-3 1.6324 3.0355 1.6744 0.1564-3.3942zm55.586 4.3744 0.36647-0.2321-1.1636-0.62276-0.78497 0.65147 0.34326 0.21774 0.34325 0.21774h0.52917zm-60.03-2.6795v-0.80306l-1.1906 0.61946-0.22596 0.1984 0.50986 0.38573 0.50985 0.38573 0.39687 0.016zm37.518-5.0868 0.27684-0.33357-2.8241-1.6213-2.8241-1.6213-11.509-6.6526v1.1963l16.007 9.3174 0.29833 0.0244 0.29833 0.0243zm-36.725-11.176v-8.3344h-0.2213l-0.83703 0.3212v16.039l0.66146 0.26691 0.19844 0.0209 0.19843 0.0209zm1.27 8.0169 0.3175-0.3175v-15.713l-0.83703-0.3212h-0.2213v16.669h0.42333zm16.119-8.0982 0.3235-0.20553-14.635-8.4444-2.5483-1.4659 3e-3 0.60066 3e-3 0.60067 15.737 9.11 0.79375 0.01zm-17.389-12.619v-1.4552h-0.2213l-0.41852-0.1606-0.41851-0.1606v2.9229l0.66146 0.2669 0.19844 0.0209 0.19843 0.0209zm1.169 1.2946 0.41851-0.1606v-2.9104l-0.41851 0.1606-0.41852 0.1606h-0.2213v2.9104h0.2213zm-0.37524-3.283 0.39688-0.26053-0.39688-0.26053-0.39687-0.26053h-0.26458l-0.79375 0.52106 0.79375 0.52106h0.26458z" fill="#2a3909"/><path d="m261.34 574.35-1.1906-0.68063-2.6458-1.4858-38.629-22.344-12.435-7.1699-4.6302-2.6685v-34.444-34.444l0.4383-0.1682 0.43831-0.16819-0.17481-32.338-0.1748-32.338 82.798-47.729 59.153 34.166 0.8599 0.41456 0.85989 0.41457v26.304l-0.4018 0.15419-0.4018 0.15418 0.1584 53.518 0.1584 53.518-0.43924 0.57497-1.2128 0.70407-1.2128 0.70406-4.5859-2.7116v-3.1646l-0.66145 0.25935-71.967 41.556-0.0722 4.4696-0.0722 4.4696-1.84 0.66537v0.49491l-0.92604-6e-3zm2.9943-0.70206 0.44957-0.33073-0.0683-28.779-0.0683-28.779-1.1906 0.83397v57.385h0.42803zm39.736-31.58 38.1-22.002 0.1536-4.6118-0.24388 0.0918-0.24388 0.0917-76.524 44.185-4e-3 4.6614 0.66146-0.4154zm-0.60278-4.7737 37.909-21.868 0.72724-0.6669-1.6248-0.84019-8.0983 4.6978-39.158 22.62-1.0583 0.59977-1.0583 0.59976-11.642 6.7342-14.023 8.0668-0.0821 0.9619-0.0821 0.96191h0.2816zm-34.88 17.529 2.8816-1.686-1.2652-0.79041-3.7042-2.109-1.1906-0.61983v6.8978l0.39687-6e-3zm5.3762-3.1007 1.973-1.0891-0.44118-0.40582-10.186-5.8642v4.6343l6.4823 3.7653 0.1994 0.0486zm3.4699-2.0418 0.6152-0.47328-12.321-7.1115-0.4536-0.1882 0.0838 1.0072 0.0838 1.0072 10.848 6.2435 0.52916-0.012zm5.7967-3.3107 4.2952-2.4724-20.497-11.826-0.8599-0.50421-0.85989-0.50421 8e-3 5.1194 8e-3 5.1194 13.08 7.5268 0.52917 0.014zm6.9907-4.0473 1.7609-1.0251-26.329-15.209h-0.34353v4.4208l22.622 13.046 0.26459-0.1037 0.26458-0.10369zm3.1734-1.8347 0.80696-0.41729-16.589-9.5683-12.171-7.0479-0.0857 0.97985-0.0857 0.97984 0.21797 0.0791 0.21796 0.0791 26.458 15.321 0.42315 0.012zm5.7971-3.3368 4.2236-2.4312-0.20143-0.18532-0.20142-0.18533-35.131-20.265-2.4398 1.2888-0.0705 3.7042-0.0705 3.7042 28.981 16.766 0.68697 0.035zm6.8546-3.95 1.8897-1.0895-0.4774-0.32478-0.4774-0.32479-34.538-19.926h-0.31811l-3.8653 2.1992 35.546 20.54 0.35039 0.014zm3.4227-2.0194 0.56207-0.46302-35.582-20.524-1.7235 0.92818 0.65319 0.39642 34.66 20.09 0.86741 0.0356zm6.9528-3.9719 3.0906-1.7751-0.0958-0.0794-35.402-20.434h-0.46735l-8.473 4.8948 0.58848 0.39687 0.58849 0.39688 34.434 19.9 2.6458-1.525zm25.881-2.8278v-3.8231l-3.7042 2.1356v3.3683l1.7859 1.0605 1.7859 1.0605 0.1322 0.0212zm1.6128 3.3691 0.76843-0.45392v-57.609l-0.39688 0.1934-1.4552 0.72941v57.594h0.31523zm-21.842-3.8206 1.9326-1.0996-34.753-20.081-1.0693-0.50362-3.8631 2.2366 0.69907 0.42209 34.66 20.09 0.46032 0.0356zm3.8248-2.3476v-0.15806l-35.497-20.497-1.6202 1.0258 4.1762 2.4188 31.485 18.204 1.4552-0.83537zm4.4933-2.6063-5e-3 -0.16422-35.47-20.45-3.6791 2.13 8e-3 0.32844 35.465 20.454 3.6856-2.1338zm-26.156-26.556 40.445-23.349 1e-3 -2.3283 1e-3 -2.3282-0.35373 0.21159-0.35373 0.21158-80.52 46.513v4.4197h0.33349zm32.942 22.799 0.89112-0.55075-6e-3 -2.2058-22.88-13.198-10.933-6.2945-3.971 2.3016 35.277 20.442 0.73129 0.056zm4.1984-1.3364 0.92604 0.54638v-43.413l-3.0427 1.7103-0.66146 0.51003v41.192l1.8521-1.0928zm-3.3575-3.0306-0.0821-0.94895-31.461-18.168-1.4793 0.76497 6e-3 0.19164 6e-3 0.19165 32.665 18.886 0.42882 0.0318zm-33.423-23.777 39.684-22.919 0.44559-0.44558-0.0868-0.67304-0.0868-0.67303-80.962 46.748-0.0841 0.83071-0.0841 0.83072 0.74556-0.39042 0.74557-0.39042zm0.87885-2.6588 38.946-22.49-0.8921-0.65861-0.5467 0.35059-0.54669 0.35058-78.317 45.185-0.66146 0.63967v0.86219l3.0722-1.7504zm-1.887-0.56272 39.244-22.655v-0.4933l-0.19843 0.11431-0.19844 0.11431-77.788 44.858-0.77485 0.7173h0.47108zm-40.131 21.729v-0.1323h-0.26458v0.26459h0.26458zm44.129-25.071 34.471-19.902-0.56084-0.187-77.342 44.656-0.10581 0.31741-0.1058 0.31741 9.1718-5.3004zm-45.187 23.476v-1.1985l-2.0676 1.19 1.9353 1.1906 0.1322 0.016zm1.0583-0.42021v-1.3229l-0.26458 0.16353-0.26458 0.16352v2.6458l0.52916-0.32704zm39.688-21.526 37.968-21.907 0.1598-0.1314-2.4109-1.3475-7.4154 4.3295-0.56696 0.31011-0.56696 0.3101-66.321 38.274-4e-3 2.839 0.59531-0.38468 0.59532-0.38468zm-41.267 20.281-0.26092-0.087-2.1066 1.184 0.25994 0.4206 2.3685-1.4306zm-1.5361 0.12468 0.98522-0.60587-49.157-28.384-2.154 1.1697 0.134 0.4165 48.412 27.995 0.79375 0.016zm3.1158-0.99635v-0.26458l-0.52916 0.32704v0.52917l0.52916-0.32704zm-1.3229-0.0943v-0.1255l-0.72761-0.37015-0.7276-0.37015-1.3229-0.37173 1.0583 0.67325 1.0583 0.67326 0.66146 0.016zm35.138-19.189 32.792-18.918-0.23884-0.41578-2.7352 1.5877-63.092 36.399-6e-3 0.22048-6e-3 0.22049 0.49417-0.1764zm-33.815 17.96v-0.52917l-0.52916 0.32704v1.0583l0.52916-0.32705zm-1.0583 0.29581v-0.26458l-1.1906 8e-3 0.79375 0.51296 0.39687 8e-3zm34.279-18.969 32.4-18.704-0.21212-0.21211-0.21211-0.21211-28.022-16.209-0.55915-0.0212-36.086 20.836 0.012 28.861 1.0348 1.3229 6e-3 0.5543 6e-3 0.55431-0.52916 0.47889-0.52917 0.47889v0.97632h0.29115zm-21.917 9.4029-0.99995-0.27978-1.572-1.572v-1.2776l0.83299-0.79605 0.833-0.79605h0.71526v-0.46497l1.5962-0.66118 1.748 0.28366 1.0398 0.70182 1.0398 0.70182 1.1906 1.3732v0.67878l-1.4552 1.5538-1.135 0.58435-2.8338 0.2499zm4.3489-0.85792 0.51139-0.35819-0.78417-0.30091-2.0597 0.80906-2.2071-0.59431v-0.50877h-1.0271l-0.14499 0.2346-0.145 0.23461 0.65564 0.54142 1.8521 0.55819 2.8375-0.25751zm-1.1369-0.828 0.13394-0.13394-0.24694-0.24222-0.24695-0.24221-1.3229-0.1182-1.7198 0.0824v0.51404l1.7198 0.5157 1.5489-0.2415zm-4.3948-0.49343 0.46302-0.35149v-0.60312h0.48507l0.2669 0.66146 0.0209-0.29025 0.0209-0.29024-0.9749-1.1241-1.1418 1.0637v1.3023l0.39688-0.016zm5.7547 0.23602v-0.1323h-0.26458v0.26459h0.26458zm1.0454-1.132-0.4021-0.71638-0.84127-0.162-0.14922 0.38888-0.14923 0.38888 0.664 0.71646 0.664 0.71647 0.30795-0.30796 0.30796-0.30796zm-1.5745 0.33821v-0.1323h-0.26459v0.26459h0.26459zm-1.4152-0.71312-0.75377-0.27447-0.83373 0.26835-0.83373 0.26834 3.175 0.012zm-0.70144-0.56112 0.92604 0.0455 0.39688 0.0852 0.39687 0.0852 0.1222-0.52916-1.4451-0.40794-2.5136 0.3253v0.77975l1.1906-0.4293zm-0.79375-1.107v-0.1323h-0.26458v0.26459h0.26458zm14.69-4.2345-1.0525-0.37481-1.4669-1.6801v-0.6043l0.80086-1.1434 2.4397-1.6465 1.4957-0.29914 1.6023 0.55857 0.67284 0.54226 1.9844 1.6607v1.2635l-1.6048 1.5336-2.3337 0.58763-1.4855-0.0232zm-1.1965-1.3217v-0.1323h-0.26458v0.26459h0.26458zm6.35-0.26459v-0.13229h-0.26458v0.26458h0.26458zm-5.6443-1.1899 0.30885-0.39613-0.55021-0.66296h-0.45217l-0.86413 1.3188 0.16451 0.42871 0.16452 0.42872 0.91978-0.72106zm5.1151 0.92529v-0.13229h-0.26458v0.26458h0.26458zm1.3229-0.48816v-0.62045l-1.0748-0.97269-0.39894 0.39895-0.39895 0.39895 0.70785 0.70784 0.70784 0.70785h0.45701zm-5.6444-0.34969-0.17639-0.17639-0.35278 0.35278h0.70555zm2.8218-0.37552 0.57367-0.0227-1.5248-0.45653-1.6502 0.33789 1.3229 0.37504 0.70474-0.21092zm-1.0138-0.87825 0.52917-5e-3 0.7276 0.19336 0.72761 0.19337v-0.74375l-2.249-0.31132-0.90626 0.19857-0.90626 0.19856-0.11728 0.35184-0.11728 0.35183 1.7825-0.42281zm-0.66146-1.0834v-0.13229h-0.26458v0.26458h0.26458zm14.42-4.2185-1.0583-0.39106-1.188-1.4758-1e-3 -0.5679-1e-3 -0.56791 0.89733-0.75501 0.89734-0.75501 1.2173-0.92112 0.86656-0.16257 0.86657-0.16256 2.306 1.1163 1.5912 1.4529 0.17584 0.48218 0.17584 0.48219-0.28392 0.53052-0.28393 0.53052-0.72622-0.27867 0.14026 0.36551 0.14027 0.36552-1.7162 0.88748-1.4784 0.10782-1.4784 0.10781zm5.1594-1.6023v-0.1323h-0.26458v0.26459h0.26458zm-5.8707-0.67177 0.57905-0.53947-8e-3 -0.37626-0.48876-0.77271-1.0906 0.98701v1.2409h0.42939zm6.6946-0.57198-0.25415-0.66846-0.92427-0.35468-0.21554 0.3397-0.21554 0.33969-8e-3 0.35846 0.70679 0.55596 0.70678 0.55596 0.22909-0.22909 0.22909-0.22908zm-5.5864 0.18541v-0.13229h-0.26458v0.26458h0.26458zm2.7781-0.39687 0.52916-0.22739-3.175 0.016 1.3229 0.42367 0.79375 0.016zm-0.67439-0.75247 1.5927 0.091 0.0137-0.26458 0.0137-0.26459-2.0982-0.29508-1.8903 0.22068v1.0652l0.7756-0.6437zm-0.78082-1.2319v-0.13229h-0.26459v0.26458h0.26459zm0.97014-0.0441-0.17639-0.17639-0.17639 0.17639-0.17639 0.17638h0.70555zm-47.251 32.456h0.50753v-0.75681l-1.6749 0.48036-0.68389-0.14145-0.68389-0.14146 0.66146 0.40341 0.66146 0.40342 0.35237-0.12374 0.35237-0.12373zm-2.932-0.12691v-0.12692l-2.172-1.1081 0.19172 0.3102 0.19171 0.3102 1.6563 0.72078 0.1322 0.0208zm4.3543-0.38397 0.15223-0.2463-0.5378-0.33238v0.82498h0.23335zm-4.0897-0.15058v-0.13229h-0.26458v0.26458h0.26458zm2.5797-0.39326 0.33073-4e-3v-0.40188l-1.0944-0.68347-2.3452 0.35168v0.45395l1.7198 0.5085 1.0583-0.22156zm-3.3734-0.12029v-0.11668l-0.30546-0.18878-0.30547-0.18879 0.18879 0.30546 0.18879 0.30547h0.23335zm-2.5209-0.63714-0.52182-0.48923-32.394-18.651-0.27729 0.0924-0.2773 0.0924 33.478 19.393 0.51447 0.0514zm8.6023-0.10608-4e-3 -0.59531-0.51296-0.79375-4e-3 0.99219-4e-3 0.99218h0.52917zm-6.3974-0.47889 0.334-0.53482-0.31374-0.50764h-0.73252l-0.80868 1.1546 0.27639 0.33303 0.27639 0.33304 0.31708-0.12168 0.31708-0.12167zm5.3351-0.44715-8e-3 -0.99219-0.24384 0.41685-0.24384 0.41684 0.15045 0.57534 0.15046 0.57535h0.20286zm-4.7545 0.59531v-0.13229h-0.26458v0.26458h0.26458zm-2.0056-0.79579 0.61491-0.6635 2.0417-1.3855 1.9186-0.25734 0.56731 0.30361 0.56731 0.30362-4e-3 -29.784-3.7006-2.0154-3e-3 -0.57981-3e-3 -0.5798-3.1313-1.7198h-1.7774l-2.3611-1.1906-0.39687-0.83498-0.39688-0.83497-5.1971-3.0243-0.48092 0.23046-0.48091 0.23045-30.734 17.727-8e-3 0.1511-8e-3 0.15109 4.6029 2.6082 0.2206 0.091 0.22059 0.091 0.51961-0.66058 0.51961-0.66057 2.4502-1.4359 2.0849 0.0288 2.6521 1.7019 0.81077 1.2374-0.16209 0.64581-0.16209 0.64582-0.80406 0.57255-0.80407 0.57254-1.291 0.34526 0.1124 0.52916 31.231 18.081 0.1576 0.0432zm-19.526-27.391-0.76219-0.22821-0.65581-0.60894-0.65581-0.60895-0.19983-0.52917-0.19982-0.52916 0.2433-0.53402 0.2433-0.53401 0.97764-0.65627 0.97765-0.65626 0.34963-0.33108 0.34963-0.33107h2.6586l1.6692 1.1435 1.4552 1.3368v1.3895l-1.4552 1.3499-0.89938 0.30059-0.89938 0.30058-2.4346-0.0454zm-0.16791-3.1492-4e-3 -0.14893-0.2653-0.39688-0.26529-0.39687-1.2695 1.4337 0.14537 0.55587 0.14537 0.55588 1.5174-1.4538zm5.5505-0.38497-0.58134-0.55771-0.12337 0.33072-0.12337 0.33073h-0.42335l-0.13838-0.52916-0.13838-0.52917h-3.1813l-0.80362 0.30838 0.14204 0.37013 0.14203 0.37013 0.97065-0.51947h2.1764l2.4886 2.4594 0.0873-0.73814 0.0874-0.73814zm-5.0173 0.7652v-0.13229h-0.26459v0.26458h0.26459zm2.7781-0.39687 0.16352-0.26459h-2.4437l0.16353 0.26459 0.16352 0.26458h1.7896zm21.299 30.692-0.39687-0.25648h-1.3229l-0.79375 0.51296h2.9104zm-0.13229-0.59832 0.92604 0.28421v-0.70217l-1.6363-0.3594-1.1662 0.17489-1.1662 0.17488v0.40855l0.14708 0.14709 0.14709 0.14708 1.8225-0.55934zm1.9844-14.748v-14.023h-0.52916v28.046h0.52916zm-36.777-4.3656v-0.1323h-0.26458v0.26459h0.26458zm-7.8221-0.47775-0.13256-0.34545-1.7774-1.0137-1.7774-1.0137-2.3246-1.345 0.10397 0.31087 0.10396 0.31087 5.8208 3.417 0.0578 0.0123 0.0579 0.0123zm8.3513-0.4483v-0.52916l-1.0776-1.0776-0.50702 0.31336-0.5848 1.0927 0.56266-0.34774 1.0776 1.0776h0.52917zm-6.53-0.36122 0.41005-0.6258-0.60048-0.60048h-0.41113l-0.42578 0.64983-0.42579 0.64982 0.17072 0.27622 0.17071 0.27622h0.70166zm0.88554-0.0797-0.17639-0.17639-0.17639 0.17639-0.17638 0.17639h0.70555zm2.734-0.35278 0.39688-0.25648h-2.9104l0.79375 0.51296h1.3229zm0.97014-0.92604-0.0882-0.26458h-3.8806l-0.0882 0.26458-0.0882 0.26459h4.2333zm-14.63-0.55178 1.224-0.68408v-0.53421l-2.5135 1.4436-0.25135 0.22941-0.25136 0.2294h0.56835zm15.637-10.065 17.205-9.9269 0.4115-0.39923-1.7856-0.96158-35.588 20.541 1.7723 0.94594 0.77939-0.2724zm-3.0355 9.5587v-0.13229h-0.26459v0.26458h0.26459zm0.41385-11.318 17.53-10.113-0.64481-0.1516-34.872 20.132-0.55144 0.60286 1.0075-0.35713zm5.5079 1.135 15.794-9.1249-0.55792-0.186-31.344 18.084-0.26458 0.26771-0.26459 0.26771 0.8438-0.1836zm-25.832-21.217-0.0729-9.6106-5e-5 19.05-4e-5 19.05 0.1458-18.879zm1.1246 8.879v-18.918l-0.26458 0.16352-0.26459 0.16352v37.835l0.26459-0.16352 0.26458-0.16353zm17.228 8.965 16.374-9.4548-8e-3 -0.13639-8e-3 -0.13638-28.667-16.497-0.96693 0.51748-3.0947-1.8799h-0.32765v37.042h0.32462zm40.716 4.5604v-0.1318l-2.4922-1.5512-0.47413 0.29303 1.2847 0.75635 1.2847 0.75636 0.39687 0.01zm-0.12103-23.085-0.12695-0.33081h-0.54577v22.119l0.33073 0.33082 0.33073 0.33083 0.1382-22.119zm-1.2019 21.365v-0.26458h-0.56039l0.16352 0.26458 0.16352 0.26459h0.23335zm71.04-0.75027-0.10885-0.10885-0.40829 0.15668-0.40828 0.15667v0.55026l0.51713-0.32296 0.51713-0.32295zm-71.834 0.10443v-0.11668l-0.4926-0.30444-0.33238 0.5378h0.82498zm72.496-0.2802v-0.13229h-0.26459v0.26458h0.26459zm-73.951-0.55774-0.52917-0.40863-0.72761-0.3835-0.7276-0.38351v0.53012l1.9844 1.0476 0.52916 6e-3zm2.249 0.16917v-0.25628l-0.39687 0.1523-0.39688 0.15229v0.20797h0.79375zm71.996-1.1432-0.21101-0.21101-1.667 0.94899-4e-3 0.67726 1.0462-0.60212 1.0462-0.60211zm0.23527 1.2672v-0.13229h-0.26458v0.26458h0.26458zm-72.743-0.67077 0.51177-0.27389-2e-3 -0.7183-2e-3 -0.71829-1.4519-0.82526-1.2309 1.4867-0.88579 0.016 2.1167 1.3037 0.43166 2e-3zm76.001-1.2636 1.8031-1.056-0.21597-0.13347-0.21596-0.13348-3.4862 2.0424-0.37317 0.4523-0.37317 0.45229 1.0583-0.56811zm-4.8458 0.33121v-0.41249l-0.26458 0.16353-0.26458 0.16352v0.49793h0.52916zm2.3355-0.76613-0.0865-0.39494-0.36727 0.22967-0.36727 0.22966 0.73454 0.79752 0.173-0.46696zm1.964-0.26635 0.99219-0.50512-4e-3 -0.29886-1.6597-0.94477-0.99514 1.0682 0.17003 0.67744 0.17002 0.67743 0.16686-0.0846 0.16687-0.0846zm-2.712-0.57026v-0.36602h-0.42333l-0.635 0.635v0.3738l1.0583-0.27676zm-1.5875 0.16315v-0.26458h-0.52916v0.52916h0.52916zm-73.554-0.13229v-0.13229h-0.26459v0.26458h0.26459zm2.9104-0.0898v-0.22212l-1.3229-0.60276v0.49153l0.46302 0.26968 0.46302 0.26969 0.39687 0.016zm-9.3486-0.21886-0.17639-0.17639-0.17639 0.17639-0.17638 0.17639h0.70555zm7.4745 0.0963-0.11024-0.0801-1.5875-0.98009 0.50403 0.57012 0.50402 0.57013h0.79993zm75.428-1.1832v-0.36835l-0.66146 0.2172-0.0721 0.77334-0.0721 0.77335 0.40286-0.51359 0.40287-0.51359zm-82.323 0.44048-0.35898-0.22746-0.7626-8e-3 1.0214 0.74683 0.4592-0.28381zm80.207 0.42589v-0.13229h-0.26458v0.26458h0.26458zm-78.934-0.57326-0.17639-0.17639-0.35278 0.35278h0.70555zm5.1521-0.36158-0.62463-0.52037-0.60283 0.018 1.2492 1.0407 0.60283-0.018zm2.3444-5.4152v-5.9531h-0.29684l-9.3604 5.3792-0.45563 0.30668-0.45564 0.30668 2.596 1.5016 2.596 1.5016 0.74645 8e-3 2.6458 1.8672 0.79375 0.51658 0.79375 0.51659 0.39687 0.00198zm83.542-21.61-0.073-9.346-5e-5 18.521-5e-5 18.521 0.0731-9.1749 0.0731-9.1749zm-93.994 26.601-0.52875-0.39019-3.8694-2.142-0.13745 0.13746-0.13746 0.13745 4.9372 2.9121 0.26458-0.26458zm3.9824-0.30667 1.0451-0.22466-0.61441-0.20295-0.61441-0.20296-0.64236 0.16123-0.64237 0.16122v0.78367h-0.52916v-0.51256l-0.86799 0.33308 0.48165 0.35219 0.48166 0.3522 0.85724-0.77579zm1.7065 0.74013v-0.26458h-2.1167v0.52916h2.1167zm82.021 0v-0.26458h-0.52917v0.52916h0.52917zm5.5562-17.84v-18.104l-4.2333 2.3984v31.382l4.101 2.4031 0.1322 0.0256zm-11.808 17.104-0.14289-0.45454 0.52808 0.59592 0.52807 0.59593 0.84023-0.32243v-0.37454l-1.8521-0.8832v-1.6463l2.3432 1.3732h0.30265v-0.44423l-1.3229-0.60276v-0.55913l1.1222 0.60058-0.15144-0.24503-0.15144-0.24504-1.0711-0.483-1.0711-0.48301v-2.3617l1.1906 0.77182 4.2853 2.464h0.72798l-6.0716-3.5038-0.11024-0.1002-0.11025-0.10019 0.1551-0.1551 0.15511-0.1551 4.4861 2.6497 1.6419 0.84906v-28.804l-6.6053 3.7871-0.01 29.003 0.50606-0.31276zm5.1931 0.25563v-0.21586l-1.0583-0.59481-1.0583-0.59482v0.55038l1.9844 1.0476 0.1322 0.0234zm-83.991-1.3942 0.14454-0.23388-1.746-1.0665-2.6835-1.4093-2.2523 1.3431 4.6147 2.6495 1.778-1.049zm4.0871 1.1092v-0.23628l-0.41852-0.1606-0.41851-0.1606-0.61818 0.016 1.0272 0.77692h0.42803zm75.935-1.2189v-0.1323h-0.26458v0.26459h0.26458zm-78.846-0.49346v-0.0966l-4.2212-2.4527-0.93819 2e-3 4.4979 2.614 0.66146 0.0292zm84.6-23.14-0.0744-7.5879 7e-5 15.346 7e-5 15.346 0.1486-15.516zm-93.464 22.442 0.16352-0.26458h-0.85621l0.32704 0.52916h0.20213zm92.736 0.13229v-0.13229h-0.26459v0.26458h0.26459zm-93.662-0.63532v-0.23845l-0.94117-0.5553-0.94116-0.5553-0.8958 0.01 2.6458 1.5694 0.1322 0.01zm3.0427-0.68069 1.0583-0.65185-0.68254-0.016-2.0956 1.0691v0.25382l0.66146-2e-3zm-0.7443-1.5172-0.8432-0.45193-0.52917-0.02-2.0385 1.234 1.7298 1.0952 2.5243-1.4058zm-5.0159 0.42437-0.15986-0.15985-0.69453 0.27793 1.0142 0.0418zm7.4083 0-0.15985-0.15985-0.69453 0.27793 1.0142 0.0418zm-5.4454-1.0276 1.1515-0.65828-0.87203-6e-3 -2.303 1.3165 0.87203 6e-3zm3.9894 0.12811-0.86629-0.52818-0.91325 0.0222 1.8521 1.014 0.79375 0.0202zm7.2185-2.2881 4.8926-2.8183v-0.46752l-1.1906 0.62814-8.7312 5.0307-0.25136 0.22259-0.25135 0.2226h0.63938zm-0.70973-0.62133 4.8053-2.7781 2e-3 -0.14943 2e-3 -0.14944-1.756-0.83738-9.7742 5.6342-0.24376 0.43974 1.3229 0.74282 0.83712-0.1242zm-15.445 2.1414-0.25136-0.23982-28.528-16.457-0.3075 0.3075 0.78934 0.45928 27.781 16.121 0.76729 0.0486zm1.7447-0.88467 1.0426-0.59531 4e-3 -0.2711-28.669-16.554-2.2874 1.2135 7e-3 0.13274 6e-3 0.13275 28.694 16.531 0.1598 6e-3zm5.0154 0.47864v-0.11668l-0.4926-0.30444-0.33238 0.5378h0.82498zm-3.3249-1.9662-0.24694-0.22201-28.226-16.257-0.17471 0.18888-0.1747 0.18888 0.52916 0.20794 28.295 16.36 0.12231-0.12231 0.1223-0.12231zm6.1011-3.0103 5.1326-2.9766-0.58092-0.32098-0.58091-0.32098-27.75-16.051-10.174 5.8446 0.40076 0.41855 28.262 16.351 0.1572 0.0312zm12.57 0.0928v-0.5025l-55.581-32.091-0.8223-0.31554 0.1788 1.1503 55.827 32.245 0.39687 0.016zm-0.0448-2.2597-0.0875-0.0709-35.19-20.282-19.844-11.488-0.97136 0.51412 0.16794 0.16794 0.16794 0.16795 55.669 32.148 0.0875-0.54329 0.0875-0.5433zm2.2201-2.1537-0.43115-0.31526-1.244 0.56681 1.1892 0.63646 0.45855-0.28638 0.45856-0.28637zm1.2642-0.24347v-0.1323h-0.26459v0.26459h0.26459zm2.8443-1.5752 2.1828-1.2492v-0.2495l-0.39687 0.22492-4.3656 2.4984v0.2495l0.39688-0.22492zm1.2302-5.4362 11.256-6.4823 0.016-12.082-1.7198 1.0492-30.956 17.84-0.38406 0.34976 10.174 5.9071 0.17956-0.05 0.17956-0.0499zm2.8047 3.0291v-0.13229l-1.5875 0.82092v0.26459l0.79375-0.41047 0.79375-0.41046zm2.8443-1.5616 2.1828-1.2492v-0.2495l-0.39688 0.22492-4.3656 2.4984v0.2495l0.19843-0.11246 0.19844-0.11246zm-66.08-1.1609v-0.22253l-2.6816-1.4595-0.25577 0.25577 2.5404 1.612 0.39688 0.0368zm1.2347-0.48302-0.17639-0.17639v0.70556l0.35278-0.35278zm75.627-21.835 38.1-21.979 0.7123-0.66189-0.0916-0.43811-0.0916-0.43812-78.052 45.057-0.24926 0.23574 0.38921 0.24741 0.38922 0.24742 0.39687-0.14555 0.39688-0.14555zm-6.7469 21.071v-0.13229l-1.5875 0.82092v0.26459l0.79375-0.41047 0.79375-0.41046zm-69.588 0.47661-2e-3 -0.19844-2.1977-1.1934-0.1337 0.13369-0.13369 0.1337 0.11024 0.0833 0.11025 0.0833 1.8521 1.1474 0.39687 8e-3zm2.7142-0.45278 0.99219-0.50513v-0.43116h-0.29204l-2.0851 1.1906-2e-3 0.22049-2e-3 0.22048 0.39688-0.1902zm72.535-22.201 38.656-22.309 1.0107-0.5473-0.5638-0.30173-0.56379-0.30174-78.569 45.365 0.29325 0.35334 0.29324 0.35334 0.39386-0.15114 0.39387-0.15114zm-73.845 21.893 0.84675-0.42994 0.33981-0.27144 0.3398-0.27145-1.1073-0.66033-1.1073-0.66034-2.3014 1.2572 7.2e-4 0.13781 7.1e-4 0.13782 0.99148 0.56662 0.99147 0.56662 0.1586 0.0574zm69.749-0.53193 0.11024-0.0965h-0.51622l-0.51359 0.41148-0.51359 0.41147 1.3229-0.63004zm-17.705-10.5 17.595-10.171 0.0697-8.7502 0.0697-8.7502-12.111 6.9862-39.447 22.754 0.18946 0.19792 0.18946 0.19793 14.527 8.4052 1.3229-0.69889zm-56.356 10.139v-0.26458h-0.5604l0.32704 0.52916h0.23336zm7.5406 0 0.16352-0.26458h-0.56039v0.52916h0.23335zm-0.92604-0.48045v-0.21586l-2.0564-1.1558-0.7217 0.01 2.3812 1.5435 0.39687 0.034zm6.8217-2.8268 5.0628-2.9104-0.33622-0.0759-0.33623-0.076-9.8892 5.7007v0.44845l0.43596-0.1764zm-15.483-19.921-0.46644-0.34219-0.0691 11.159-0.069 11.159 0.93184 0.68152 0.1392-22.315zm1.7202 14.174 0.0699-8.0842-0.80131-0.30749v16.696l0.66146-0.2203zm13.767 4.6846 4.0475-2.3256-0.42211-0.36388-1.8521-1.093-9.525 5.5327-0.36588 0.21539-0.36588 0.21538 2.3062 1.3752 2.1297-1.2306zm34.458-18.852 26.012-15.019 0.10416-0.31251 0.10417-0.31251-45.411 26.225-7.0115 4.0215v0.4163h0.1906zm12.427-8.1992 37.968-21.929 0.0884-0.60682 0.0884-0.60683-0.25599 0.0956-0.256 0.0956-77.868 44.973 0.44133 0.32271 0.44134 0.32272 0.69254-0.36864 0.69254-0.36863zm-1.3478-0.94028 39.001-22.54-0.0273-0.26458-0.0273-0.26459-0.80581-0.168-78.599 45.379 0.66348 0.42125 0.79375-0.0224zm-59.242 10.244v-1.4145l-0.39687 0.1523-0.39688 0.15229v3.1832l0.79375-0.65875zm40.672-20.252 38.57-22.261 0.175-0.1478-0.0875-0.53807-0.0875-0.53808-77.788 44.938-0.49056 0.177 0.19475 0.31511 0.19475 0.31512h0.74761zm72.622 20.213 3.1091-1.783-0.64845-0.58044-13.006-7.4768-0.83673-0.32108-6.1728 3.5444 0.21802 0.21023 0.21803 0.21022 13.758 7.9541 0.12555 0.0128 0.12554 0.0127zm-72.946-21.77 38.629-22.285 0.1776-0.1568-1.0369-0.55491-77.59 44.796v1.2367l0.59531-0.37538 0.59532-0.37538zm-40.932 20.152 0.34326-0.21774-0.78497-0.65147-1.1636 0.62277 0.73295 0.46418h0.52916zm95.883-8.7038 3.1186-1.7859-4e-3 -0.26458-14.028-8.05 0.0734 3.7454 0.0734 3.7454 7.4083 4.3403 0.11961 0.0277 0.1196 0.0277zm38.711-1.8526v-0.32401l-15.081-8.7214-0.1842 1.1573 0.44875 0.1766 14.023 8.1567 0.39688-0.0606 0.39687-0.0605zm1.453-0.58781 0.39466-0.24952-0.52474-0.48084-53.181-30.676-1.1175-0.59446-0.88312 0.64576 16.489 9.5202 0.74756 0.39687 0.74756 0.39688 30.318 17.558 6.35 3.7194 0.26459 0.014zm-51.66-6.1585-0.0913-1.9182v7.6729l0.1826-3.8365zm53.779 4.9609v-0.0757l-0.79375-0.30459v0.76053l0.79375-0.30459zm-54.558-5.0115-0.0782-1.7042-3.0427 1.8635 4e-3 1.6324 4e-3 1.6324 3.0355 1.6744 0.1564-3.3942zm55.586 4.3744 0.36647-0.2321-1.1636-0.62276-0.78497 0.65147 0.34326 0.21774 0.34325 0.21774h0.52917zm-59.311-3.3978-0.11022-0.7276v2.9104l0.11022-0.7276 0.11022-0.72761zm-0.71868 0.7183v-0.80306l-1.1906 0.61946-0.22596 0.1984 0.50986 0.38573 0.50985 0.38573 0.39687 0.016zm-0.54933-1.0093 1.1705-0.71245 0.10859-0.32578 0.10859-0.32579-1.4723 0.8606-1.4723 0.86059-5e-3 0.19843-5e-3 0.19844 0.19843-0.0208 0.19844-0.0208zm4.3785-2.6007 0.52189-0.3494h-0.73271l-2.2954 1.3452v0.55002l1.9844-1.1965zm0.66873-0.74627v-0.13229h-0.26458v0.26458h0.26458zm33.02-0.73044 0.27684-0.33357-2.8241-1.6213-2.8241-1.6213-11.509-6.6526v1.1963l16.007 9.3174 0.29833 0.0244 0.29833 0.0243zm-36.725-1.3862v-0.13229h-0.26458v0.26458h0.26458zm0-9.7896v-8.3344h-0.2213l-0.83703 0.3212v16.039l0.66146 0.26691 0.19844 0.0209 0.19843 0.0209zm1.27 8.0169 0.3175-0.3175v-15.713l-0.83703-0.3212h-0.2213v16.669h0.42333zm16.119-8.0982 0.3235-0.20553-14.635-8.4444-2.5483-1.4659 3e-3 0.60066 3e-3 0.60067 15.737 9.11 0.79375 0.01zm-17.389-12.619v-1.4552h-0.2213l-0.41852-0.1606-0.41851-0.1606v2.9229l0.66146 0.2669 0.19844 0.0209 0.19843 0.0209zm1.169 1.2946 0.41851-0.1606v-2.9104l-0.41851 0.1606-0.41852 0.1606h-0.2213v2.9104h0.2213zm-0.37524-3.283 0.39688-0.26053-0.39688-0.26053-0.39687-0.26053h-0.26458l-0.79375 0.52106 0.79375 0.52106h0.26458z" fill="#171817"/></g></g></g></g></svg>
